HIERARCHY
ROOT Hips
{
	OFFSET 0.00000 0.00000 0.00000
	CHANNELS 6 Xposition Yposition Zposition Yrotation Zrotation Xrotation 
	JOINT Lumbar
	{
		OFFSET 0 0 0
		CHANNELS 3 Zrotation Xrotation Yrotation
		JOINT Neck
		{
			OFFSET 0.00 0.2701 0.00
			CHANNELS 3 Zrotation Xrotation Yrotation
			End Site
			{
				OFFSET 0.00 0.1379 0.00
			}
		}
		JOINT RightShoulder
		{
			OFFSET 0.0119 0.2289 0.1181
			CHANNELS 3 Zrotation Xrotation Yrotation
			JOINT RightElbow
			{
				OFFSET 0.00 -0.1475 0.00
				CHANNELS 2 Zrotation Yrotation
				JOINT RightWrist
				{
					OFFSET 0.00 -0.1605 0.00
					CHANNELS 2 Zrotation Xrotation
					End Site
					{
						OFFSET 0.0040 -0.1068 0.0006
					}
				}
			}
		}
		JOINT LeftShoulder
		{
			OFFSET 0.0119 0.2289 -0.1181
			CHANNELS 3 Zrotation Xrotation Yrotation
			JOINT LeftElbow
			{
				OFFSET 0.00 -0.1475 0.00
				CHANNELS 2 Zrotation Yrotation
				JOINT LeftWrist
				{
					OFFSET 0.00 -0.1605 0.00
					CHANNELS 2 Zrotation Xrotation
					End Site
					{
						OFFSET 0.0040 -0.1068 -0.0006
					}
				}
			}
		}
	}
	JOINT RightHip
	{
		OFFSET 0.0316 -0.0424 0.0458
		CHANNELS 3 Zrotation Xrotation Yrotation
		JOINT RightKnee
		{
			OFFSET 0.00 -0.2438 0.00
			CHANNELS 1 Zrotation
			JOINT RightAnkle
			{
				OFFSET 0.00 -0.2449 0.00
				CHANNELS 3 Zrotation Xrotation Yrotation
				End Site
				{
					OFFSET 0.1237 -0.0542 0.0051
				}
			}
		}
	}
	JOINT LeftHip
	{
		OFFSET 0.0316 -0.0424 -0.0458
		CHANNELS 3 Zrotation Xrotation Yrotation
		JOINT LeftKnee
		{
			OFFSET 0.00 -0.2438 0.00
			CHANNELS 1 Zrotation
			JOINT LeftAnkle
			{
				OFFSET 0.00 -0.2449 0.00
				CHANNELS 3 Zrotation Xrotation Yrotation
				End Site
				{
					OFFSET 0.1237 -0.0542 -0.0051
				}
			}
		}
	}
}
MOTION
Frames: 11
Frame Time: 0.02
0.841 -0.01025 0.13205 890.56738 -39.17078 0.93206 36.79726 4.5052 34.60481 6.34326 3.57114 -0.83079 49.32407 -17.5608 -88.89016 10.05291 81.96912 -11.43464 -3.94308 -59.58682 8.73752 38.01729 52.25812 -130.97809 16.82545 -6.68035 42.94609 -1.40644 -15.24912 -45.61568 -6.55421 -3.18487 -2.28727 60.62466 -7.00579 3.98544 -3.11695 -8.62326 6.1851 4.69544
0.82565 -0.01317 0.12663 890.93535 -38.63792 1.30625 36.79133 4.07638 34.68367 6.21445 3.4669 -0.83079 49.01842 -16.91827 -85.3917 10.13433 81.08555 -11.94599 -3.66453 -58.93684 8.193 40.82284 51.08929 -119.36396 11.71773 -5.90194 42.85539 -1.88682 -14.27977 -49.01972 -7.02288 -3.01551 -2.21542 61.07456 -6.98791 5.71418 -6.82198 -8.5433 5.60883 4.27655
0.80972 -0.0165 0.12114 891.1769 -37.93656 1.61387 36.77217 3.58655 34.64184 6.12346 3.47162 -0.83079 48.54714 -16.27403 -81.06774 9.95255 80.30401 -12.61462 -3.43214 -57.97476 7.68889 43.60953 49.89364 -104.49719 5.21641 -4.88873 43.04742 -2.40088 -12.94465 -53.07813 -7.61593 -2.80427 -2.12612 62.45884 -6.36354 8.16381 -14.38576 -8.48513 4.75388 3.64229
0.79413 -0.01955 0.11569 891.45666 -37.30982 1.93691 36.74832 3.13976 34.63581 6.01622 3.42866 -0.83079 48.18457 -15.61935 -77.36805 9.87485 79.57241 -13.19136 -3.20625 -57.14796 7.18548 46.20955 48.74221 -91.49468 -0.49721 -4.00914 43.16411 -2.90291 -11.79358 -56.82587 -8.13857 -2.62147 -2.04933 63.30946 -6.02517 10.19486 -19.98169 -8.4071 4.0546 3.12693
0.77822 -0.02303 0.1102 891.81515 -36.687 2.32275 36.76965 2.62773 34.70921 5.90291 3.38062 -0.83079 47.67947 -15.00712 -72.63535 9.8662 78.43169 -13.85714 -2.86232 -56.35781 6.60581 49.63845 47.45192 -76.78577 -6.89262 -3.00795 43.05814 -3.39492 -10.56849 -60.66298 -8.72029 -2.3979 -1.95264 64.59168 -5.65452 12.58172 -26.4578 -8.36869 3.23657 2.52592
0.76284 -0.02569 0.10479 891.98319 -36.02017 2.56092 36.69555 2.23766 34.58433 5.81403 3.3672 -0.83079 47.43038 -14.30636 -69.83189 9.65367 78.15431 -14.37598 -2.77178 -55.40341 6.20117 51.32133 46.44726 -64.90882 -12.17192 -2.20711 43.48004 -3.9123 -9.41293 -64.43268 -9.20809 -2.25015 -1.89374 65.21043 -5.2015 14.40936 -32.02588 -8.25532 2.5972 2.0503
0.74904 -0.02609 0.09965 891.62485 -35.24243 2.42036 36.33866 2.19479 33.9982 5.75873 3.43239 -0.83079 47.95467 -13.38215 -72.79722 8.89509 80.41241 -14.42159 -3.4229 -54.1964 6.16296 48.36376 46.21996 -61.37631 -14.22751 -2.01975 45.31646 -4.51655 -8.50439 -68.14332 -9.40939 -2.31591 -1.94002 63.73743 -4.68332 14.51781 -34.14945 -7.91144 2.53254 1.98174
0.7358 -0.02563 0.0946 891.08548 -34.43229 2.1317 35.8901 2.27728 33.2076 5.73122 3.52639 -0.83079 48.73821 -12.36679 -77.68946 7.94776 83.50741 -14.31797 -4.31905 -52.81023 6.31356 43.62779 46.28388 -60.85264 -15.07947 -2.04258 47.66687 -5.1403 -7.68341 -71.70397 -9.51158 -2.46022 -2.02542 61.57471 -4.09927 14.04209 -35.22937 -7.4948 2.65451 2.04497
0.72234 -0.02549 0.08951 890.64895 -33.6571 1.90203 35.49798 2.30584 32.4735 5.70722 3.60083 -0.83079 49.38635 -11.37965 -81.54148 7.11734 86.10387 -14.3016 -5.06837 -51.42703 6.451 39.57992 46.2275 -59.15171 -16.34156 -1.96875 49.76856 -5.73842 -6.84546 -75.15056 -9.65655 -2.57313 -2.09549 59.75081 -3.53461 13.83732 -36.78462 -7.12357 2.68194 2.04214
0.70874 -0.02567 0.08444 890.11928 -32.79002 1.70325 35.04302 2.32094 31.88633 5.61672 3.7072 -0.83079 50.1021 -10.44491 -86.05463 6.14807 89.19502 -14.21105 -5.96663 -50.37133 6.29972 35.99928 46.12253 -56.58141 -18.2029 -1.89215 51.95537 -6.4084 -5.90204 -79.41031 -9.81402 -2.66805 -2.15549 57.84873 -2.99288 13.6353 -38.46506 -6.70121 2.74051 2.05773
0.69558 -0.02499 0.07933 889.74465 -32.10961 1.4082 34.69736 2.39273 30.94935 5.67044 3.7515 -0.83079 50.74172 -9.38336 -89.66489 5.42456 91.46281 -14.23464 -6.6152 -48.58596 6.77356 31.07232 46.18421 -56.51909 -18.54646 -1.87335 54.06901 -6.93309 -5.19937 -81.90598 -9.92202 -2.8176 -2.24488 55.93761 -2.3964 13.27804 -39.5925 -6.3675 2.78244 2.06922
